<?xml version="1.0" encoding="UTF-8" standalone="no"?>
<!-- Created with Inkscape (http://www.inkscape.org/) -->

<svg
   width="210mm"
   height="297mm"
   viewBox="0 0 210 297"
   version="1.1"
   id="svg549"
   inkscape:version="1.2.1 (9c6d41e, 2022-07-14)"
   sodipodi:docname="timeline-logo.svg"
   xmlns:inkscape="http://www.inkscape.org/namespaces/inkscape"
   xmlns:sodipodi="http://sodipodi.sourceforge.net/DTD/sodipodi-0.dtd"
   xmlns="http://www.w3.org/2000/svg"
   xmlns:svg="http://www.w3.org/2000/svg">
  <sodipodi:namedview
     id="namedview551"
     pagecolor="#505050"
     bordercolor="#eeeeee"
     borderopacity="1"
     inkscape:showpageshadow="0"
     inkscape:pageopacity="0"
     inkscape:pagecheckerboard="0"
     inkscape:deskcolor="#505050"
     inkscape:document-units="mm"
     showgrid="false"
     inkscape:zoom="0.14866305"
     inkscape:cx="396.87064"
     inkscape:cy="558.30955"
     inkscape:window-width="1309"
     inkscape:window-height="456"
     inkscape:window-x="0"
     inkscape:window-y="0"
     inkscape:window-maximized="0"
     inkscape:current-layer="layer1" />
  <defs
     id="defs546" />
  <g
     inkscape:label="Layer 1"
     inkscape:groupmode="layer"
     id="layer1">
    <path
       class="st1"
       d="M 1.2061201,142.06707 50.091224,123.25462 c 0,0 36.452279,-15.18747 41.008808,-17.99994 4.556524,-2.81253 5.012182,0.81249 5.012182,0.81249 0,0 0,0.74999 -0.325462,1.1875 -0.325465,0.43749 -13.539408,11.56245 -13.539408,11.56245 l -14.906382,11.74996 -15.29694,11.24998 -14.515815,9.93748 -8.527229,5.49997 -10.805494,6.62501 c 0,0 -2.408454,1.18745 -3.970695,-0.62502 -1.562241,-1.8125 -13.6045097,-16.31245 -13.6045097,-16.31245 0,0 -2.9942936,-2.75001 0.5858408,-4.87498 z"
       id="path6"
       sodipodi:nodetypes="ccscsccccccscc"
       style="fill:#1389ff;stroke-width:0.637833" />
    <path
       class="st2"
       d="m 35.184847,185.75443 5.012189,-3.12497 4.231064,-2.87501 4.81691,-3.375 4.882,-3.56247 8.917791,-6.74998 15.296942,-12.12498 13.734699,-11.37497 19.267608,-16.81245 15.23185,-14.12495 13.66959,-13.624965 11.13099,-12.374969 c 0,0 1.88768,-1.999979 2.99429,-1.187501 1.10658,0.812508 1.23679,0.687524 1.36695,1.312512 0.13009,0.624991 0.32548,0.687497 -0.45565,2.249992 -0.78112,1.562494 -4.36127,8.249975 -4.36127,8.249975 l -4.55652,7.999976 -8.20176,13.06248 -7.16027,10.37496 -10.34986,13.68747 -8.91777,10.81245 -6.24898,7.12498 -7.420626,8.06246 -8.787589,8.99998 -7.09518,6.81249 -5.272574,4.87498 -5.663108,5 -4.882002,4.12499 -10.610218,8.06248 -3.840504,2.37498 c 0,0 -2.733922,1.62501 -5.20747,-1.43748 -2.473548,-3.06251 -12.693203,-15.93747 -12.693203,-15.93747 0,0 -1.9528,-2.49998 1.171681,-4.49999 z"
       id="path8"
       sodipodi:nodetypes="ccccccccccccssscccccccccccccccscc"
       style="fill:#4da6ff;stroke-width:0.637833" />
    <path
       class="st3"
       d="m 68.187174,228.06679 7.095174,-5.24998 8.982894,-7.43747 7.681005,-6.99997 6.574425,-6.37498 6.574428,-6.74999 9.30835,-10.18745 8.33194,-9.68748 10.41493,-12.74996 7.94139,-10.24999 9.8942,-13.31244 9.6338,-13.68747 7.87632,-11.74996 7.7461,-12.12497 6.83481,-11.249972 7.16023,-12.562476 5.72825,-10.874953 4.49143,-9.37498 1.43203,-3.18748 c 0,0 0.39057,-1.937497 2.34338,-1.937497 1.95279,0 2.27829,1.749987 2.27829,1.749987 v 0.687519 l -0.9113,3.499973 -2.34338,8.749983 -3.51504,11.624955 -2.53866,7.499983 -2.86409,7.812471 -2.92921,7.499977 -2.34335,5.62498 -3.58016,8.18748 -3.9056,8.43748 -4.36123,8.93747 -5.40275,10.31247 -5.66312,10.0625 -7.22537,11.93745 -4.42634,6.87496 -6.70461,9.99998 -9.30836,12.81249 -8.98287,11.37495 -7.35556,8.56247 -10.02438,10.81249 -10.28473,10.06247 -7.746123,7.06247 -4.751796,3.93748 -4.231087,3.31251 -0.846192,0.68749 c 0,0 -2.473557,1.62497 -4.491454,-0.37499 -2.017897,-2.00002 -5.272559,-7.06249 -5.272559,-7.06249 l -5.337654,-7.18747 -2.148082,-2.87501 c 0.06509,0 -2.53864,-2.49999 1.171681,-4.87501 z"
       id="path10"
       sodipodi:nodetypes="cccccccccccccccccccsccccccccccccccccccccccccccscccc"
       style="fill:#daecff;stroke-width:0.637833" />
  </g>
</svg>
